<svg width="208" height="196" viewBox="0 0 208 196" fill="none" xmlns="http://www.w3.org/2000/svg">
<path d="M77 87.5L70.6024 96.5M70.6024 96.5L47.5 129L56.5 144L65.5 137.5L56.5 133.5L70.6024 96.5Z" stroke="black"/>
<path d="M130 126C163.5 126 166 126 174.5 95V64C174.5 62 161.5 51 157 54.5C152.5 58 146.5 47.5 151 76.5C154.6 99.7 130.167 92.5 117.5 86C106.167 82.1666 82.4 76.2 78 83C73.6 89.8 68.5 123.833 66.5 140C66.5 140 71.8288 149.884 83.5 149C116.5 146.5 115.5 158 117.5 158C119.5 158 96.5 126 130 126Z" stroke="black"/>
<path d="M75.092 147C72.7587 152.667 69.492 166 75.092 174C80.692 182 77.4254 191 75.092 194.5C78.4254 195.167 85.492 194.6 87.092 187C89.092 177.5 83.092 182 90.592 170C96.592 160.4 88.092 161.667 83.092 163.5L87.092 150.5" stroke="black"/>
<path d="M56 145L1.5 184.5C4.83333 186 11.6 188.1 18 184.5C24.4 180.9 28 188.5 32 184.5C36 180.5 32 174.5 36 170C40 165.5 71.6 159.7 74 148.5" stroke="black"/>
<path d="M184 75.5C197.2 59.9 186.833 50 180 47L174.5 65C173.5 72.7955 164.2 87.3092 135 83C98.5 77.6135 117.5 86.5 141 90.5C164.5 94.5 167.5 95 184 75.5Z" stroke="black"/>
<path d="M191 47C193.8 46.2 192.167 44 191 43C189.333 42.1667 185.8 41.6 185 46C184 51.5 198 60.5 198 36C198 16.4 183.667 4.5 176.5 1L151.5 7C149.333 10.3333 147.3 18.9 156.5 26.5C153.333 27.1667 150.5 31.4 164.5 43C167.345 43.158 173.427 40.4085 176.095 28.526M176.095 28.526C176.241 27.8781 176.376 27.2032 176.5 26.5C178.9 12.9 177.23 22.184 176.095 28.526Z" stroke="black"/>
<path d="M198.5 33C205.333 43.5 214.4 65.9 196 71.5C173 78.5 183.5 98.5 191 95.5C198.5 92.5 201 86.5 198.5 84C196.5 82 192.667 84.8333 191 86.5" stroke="black"/>
</svg>
